<?xml version="1.0" encoding="UTF-8" standalone="no" ?>
<!DOCTYPE svg PUBLIC "-//W3C//DTD SVG 1.1//EN" "http://www.w3.org/Graphics/SVG/1.1/DTD/svg11.dtd">
<svg xmlns="http://www.w3.org/2000/svg" xmlns:xlink="http://www.w3.org/1999/xlink" version="1.1" width="512" height="512" viewBox="0 0 512 512" xml:space="preserve">
<desc>Created with Fabric.js 5.3.0</desc>
<defs>
</defs>
<g transform="matrix(1 0 0 1 256.4975491247 265.9227572861)" id="8nVmecPdQyfZCs3_nCyr9"  >
<path style="stroke: rgb(0,0,0); stroke-width: 1; stroke-dasharray: none; stroke-linecap: butt; stroke-dashoffset: 0; stroke-linejoin: miter; stroke-miterlimit: 4; fill: rgb(153,63,63); fill-rule: nonzero; opacity: 1;" vector-effect="non-scaling-stroke"  transform=" translate(0, 0)" d="M -184.68723 8.72208 C -184.68723 8.72208 -192.91874 43.29443 -184.68723 50.97717 C -176.45571999999999 58.65991 -88.65293 83.35445 -82.06772 82.25691 C -75.48250999999999 81.15938 16.16165000000001 105.30514000000001 22.198090000000008 114.08542 C 28.234530000000007 122.8657 50.73400000000001 108.04898 83.11127 103.11007 C 115.48855 98.17115999999999 152.25596000000002 84.45197999999999 157.74364 71.83032999999999 C 163.23131 59.20867999999999 187.37708 37.80674999999999 185.18201 21.89249999999999 C 182.98694 5.978239999999991 197.25489 -13.22861000000001 178.5968 -48.898500000000006 C 159.93871000000001 -84.56838 153.90227 -107.61661000000001 142.92692 -116.39689000000001 C 131.95157 -125.17717000000002 -184.68723 8.722079999999991 -184.68723 8.722079999999991 z" stroke-linecap="round" />
</g>
<g transform="matrix(1 0 0 1 243.2610542038 226.4855928942)" id="aV2h5w1LNv4jrA_CQ5NhT"  >
<filter id="SVGID_91" y="-20%" height="140%" x="-20%" width="140%" >
	<feGaussianBlur in="SourceAlpha" stdDeviation="0"></feGaussianBlur>
	<feOffset dx="0" dy="0" result="oBlur" ></feOffset>
	<feFlood flood-color="rgb(0,0,0)" flood-opacity="1"/>
	<feComposite in2="oBlur" operator="in" />
	<feMerge>
		<feMergeNode></feMergeNode>
		<feMergeNode in="SourceGraphic"></feMergeNode>
	</feMerge>
</filter>
<path style="stroke: rgb(0,0,0); stroke-width: 1; stroke-dasharray: none; stroke-linecap: butt; stroke-dashoffset: 0; stroke-linejoin: miter; stroke-miterlimit: 4; fill: rgb(255,109,109); fill-rule: nonzero; opacity: 1;filter: url(#SVGID_91);" vector-effect="non-scaling-stroke"  transform=" translate(0, 0)" d="M -172.54827 5.35538 C -172.54827 5.35538 -167.60936 -28.668200000000002 -129.74441000000002 -38.546009999999995 C -91.87946000000002 -48.42381999999999 -63.89232000000001 -37.99724 -34.80765000000001 -58.30163999999999 C -5.72298000000001 -78.60602999999999 12.93511999999999 -98.91042999999999 39.275949999999995 -95.61782 C 65.61679 -92.32522 130.92011 -109.88577 156.16341 -75.31343 C 181.40671 -40.74108 180.30918 53.09814999999999 166.04122 57.48828000000002 C 151.77327 61.87842000000002 82.07981000000001 115.10886000000002 35.43457000000001 90.96309000000002 C -11.21065999999999 66.81732000000002 -78.16028999999999 70.10993000000002 -104.50111999999999 67.91486000000002 C -130.84195999999997 65.71979000000002 -156.08525999999998 63.524720000000016 -169.25567999999998 49.25677000000002 C -182.4261 34.98882000000002 -172.54827999999998 5.355380000000018 -172.54827999999998 5.355380000000018 z" stroke-linecap="round" />
</g>
<g transform="matrix(1 0 0 1 241.1464139062 215.1233670116)" id="ONyju3XN8VrOHHsD5MTvv"  >
<path style="stroke: rgb(0,0,0); stroke-width: 0; stroke-dasharray: none; stroke-linecap: butt; stroke-dashoffset: 0; stroke-linejoin: miter; stroke-miterlimit: 4; fill: rgb(255,158,158); fill-rule: nonzero; opacity: 1;" vector-effect="non-scaling-stroke"  transform=" translate(0, 0)" d="M 136.87612 -46.0448 C 136.87612 -46.0448 137.42488999999998 -65.41366000000001 112.73034999999999 -66.51119 C 88.03581999999999 -67.60872 35.90290999999999 -65.80043 25.47632999999999 -54.82508 C 15.04974999999999 -43.84973 -40.375760000000014 -22.4478 -50.802340000000015 -14.765059999999998 C -61.228920000000016 -7.082319999999998 -112.26429000000002 -16.96013 -121.04457000000002 -7.631079999999998 C -129.82485000000003 1.6979700000000024 -160.55582 24.197430000000004 -128.17855000000003 39.562920000000005 C -95.80127000000003 54.92841000000001 -77.14318000000003 64.25745 -63.97276000000004 62.062380000000005 C -50.80234000000004 59.86731 55.65853999999996 76.87910000000001 82.54813999999998 57.123470000000005 C 109.43773999999998 37.36784 134.68103999999997 33.52647 140.71748999999997 0.05166000000000537 C 146.75392999999997 -33.42314999999999 136.87611999999996 -46.044799999999995 136.87611999999996 -46.044799999999995 z" stroke-linecap="round" />
</g>
</svg>